<?xml version="1.0" standalone="no"?>
<!DOCTYPE svg PUBLIC "-//W3C//DTD SVG 20010904//EN"
 "http://www.w3.org/TR/2001/REC-SVG-20010904/DTD/svg10.dtd">
<svg version="1.0" xmlns="http://www.w3.org/2000/svg"
 width="700.000000pt" height="700.000000pt" viewBox="0 0 700.000000 700.000000"
 preserveAspectRatio="xMidYMid meet">
<metadata>
Created by potrace 1.14, written by Peter Selinger 2001-2017
</metadata>
<g transform="translate(0.000000,700.000000) scale(0.100000,-0.100000)"
fill="#000000" stroke="none">
<path d="M0 3500 l0 -3500 3500 0 3500 0 0 3500 0 3500 -3500 0 -3500 0 0
-3500z m3351 1464 c171 -28 239 -56 366 -150 45 -34 95 -84 133 -134 57 -75
81 -93 95 -71 21 34 361 235 470 278 140 55 316 93 425 93 92 0 313 -34 390
-59 272 -91 409 -266 489 -626 6 -27 18 -120 26 -205 13 -130 15 -308 13
-1110 l-3 -955 -525 0 -525 0 -5 915 -5 915 -23 48 c-45 94 -175 141 -324 117
-82 -13 -212 -71 -270 -120 l-38 -31 -2 -922 -3 -922 -525 0 -525 0 -5 910
c-3 501 -9 919 -13 930 -28 64 -47 89 -89 115 -108 67 -271 60 -423 -16 -59
-30 -77 -42 -111 -75 l-34 -33 0 -918 0 -918 -522 2 -523 3 0 1450 0 1450 410
3 c226 1 424 0 440 -3 26 -5 41 -24 108 -135 43 -72 83 -130 88 -130 6 0 33
17 62 38 119 88 291 180 407 219 90 30 285 61 396 62 44 1 123 -6 175 -15z"/>
</g>
</svg>
